<svg width="100" height="100" viewBox="0 0 100 100" fill="none" xmlns="http://www.w3.org/2000/svg">
<path d="M98.3871 40.3226H90.8064C89.777 35.9627 88.0488 31.798 85.6887 27.9903L91.0516 22.6274C91.6813 21.9976 91.6813 20.9766 91.0516 20.3468L79.6532 8.94194C79.0234 8.3123 78.0024 8.3123 77.3726 8.94194L72.0081 14.3048C68.2008 11.9466 64.0367 10.2204 59.6774 9.19355V1.6129C59.6774 0.722177 58.9552 0 58.0645 0H41.9355C41.0448 0 40.3226 0.722177 40.3226 1.6129V9.19355C35.9629 10.2224 31.7988 11.9506 27.9919 14.3113L22.6274 8.94194C21.9976 8.3123 20.9766 8.3123 20.3468 8.94194L8.94194 20.3468C8.3123 20.9766 8.3123 21.9976 8.94194 22.6274L14.3048 27.9903C11.947 31.7984 10.221 35.9631 9.19355 40.3226H1.6129C0.722177 40.3226 0 41.0448 0 41.9355V58.0645C0 58.9552 0.722177 59.6774 1.6129 59.6774H9.19355C10.223 64.0373 11.9512 68.202 14.3113 72.0097L8.94194 77.3726C8.3123 78.0024 8.3123 79.0234 8.94194 79.6532L20.3468 91.0581C20.9867 91.6631 21.9875 91.6631 22.6274 91.0581L27.9903 85.6952C31.7984 88.053 35.9631 89.779 40.3226 90.8064V98.3871C40.3226 99.2778 41.0448 100 41.9355 100H58.0645C58.9552 100 59.6774 99.2778 59.6774 98.3871V90.8064C64.0373 89.777 68.202 88.0488 72.0097 85.6887L77.3726 91.0516C78.0024 91.6813 79.0234 91.6813 79.6532 91.0516L91.0581 79.6468C91.6877 79.0169 91.6877 77.996 91.0581 77.3661L85.6952 72.0032C88.0524 68.1972 89.7784 64.0347 90.8064 59.6774H98.3871C99.2778 59.6774 100 58.9552 100 58.0645V41.9355C100 41.0448 99.2778 40.3226 98.3871 40.3226ZM96.7742 56.4516H89.5161C88.7496 56.4514 88.0887 56.9909 87.9355 57.7419C86.9502 62.5964 85.0333 67.2139 82.2903 71.3387C81.8659 71.9782 81.9508 72.8282 82.4935 73.371L87.6355 78.5113L78.5113 87.6355L73.371 82.4935C72.8282 81.9508 71.9782 81.8659 71.3387 82.2903C67.2139 85.0333 62.5964 86.9502 57.7419 87.9355C56.9909 88.0887 56.4514 88.7496 56.4516 89.5161V96.7742H43.5484V89.5161C43.5486 88.7496 43.0091 88.0887 42.2581 87.9355C37.4036 86.9502 32.7861 85.0333 28.6613 82.2903C28.0218 81.8659 27.1718 81.9508 26.629 82.4935L21.4887 87.6355L12.3629 78.5129L17.5048 73.3726C18.0476 72.8298 18.1325 71.9798 17.7081 71.3403C14.9651 67.2155 13.0482 62.598 12.0629 57.7435C11.9103 56.9923 11.2504 56.4524 10.4839 56.4516H3.22581V43.5484H10.4839C11.2504 43.5486 11.9113 43.0091 12.0645 42.2581C13.0498 37.4036 14.9667 32.7861 17.7097 28.6613C18.1341 28.0218 18.049 27.1718 17.5065 26.629L12.3629 21.4871L21.4871 12.3629L26.629 17.5048C27.1718 18.0476 28.0218 18.1325 28.6613 17.7081C32.7857 14.9657 37.4026 13.0486 42.2565 12.0629C43.0077 11.9103 43.5476 11.2504 43.5484 10.4839V3.22581H56.4516V10.4839C56.4514 11.2504 56.9909 11.9113 57.7419 12.0645C62.5958 13.0502 67.2127 14.9673 71.3371 17.7097C71.9766 18.1341 72.8266 18.0492 73.3694 17.5065L78.5113 12.3645L87.6355 21.4887L82.4935 26.629C81.9508 27.1718 81.8659 28.0218 82.2903 28.6613C85.0333 32.7861 86.9502 37.4036 87.9355 42.2581C88.0887 43.0091 88.7496 43.5486 89.5161 43.5484H96.7742V56.4516Z" fill="#872DCD"/>
<path d="M50 32.2581C40.2014 32.2581 32.2581 40.2014 32.2581 50C32.2581 59.7986 40.2014 67.7419 50 67.7419C59.7986 67.7419 67.7419 59.7986 67.7419 50C67.7304 40.2062 59.7937 32.2695 50 32.2581ZM50 64.5161C41.9831 64.5161 35.4839 58.0169 35.4839 50C35.4839 41.9829 41.9831 35.4839 50 35.4839C58.0171 35.4839 64.5161 41.9829 64.5161 50C64.5073 58.0133 58.0133 64.5073 50 64.5161Z" fill="#872DCD"/>
</svg>
