<svg width="20" height="20" viewBox="0 0 20 20" fill="none" xmlns="http://www.w3.org/2000/svg">
<path d="M18.6667 2.66663V3.33329C19.0349 3.33329 19.3333 3.63171 19.3333 3.99996V14H0.666667V3.99996C0.666667 3.63171 0.965083 3.33329 1.33333 3.33329V2.66663C0.597 2.66663 0 3.26363 0 3.99996V15.3333C0 16.0696 0.597 16.6666 1.33333 16.6666H7.88533L7.08533 19.3333H6.33333V20H13.6667V19.3333H12.9147L12.1147 16.6666H18.6667C19.403 16.6666 20 16.0696 20 15.3333V3.99996C20 3.26363 19.403 2.66663 18.6667 2.66663ZM12.2187 19.3333H7.78133L8.58133 16.6666H11.4187L12.2187 19.3333ZM19.3333 15.3333C19.3333 15.7015 19.0349 16 18.6667 16H1.33333C0.965083 16 0.666667 15.7015 0.666667 15.3333V14.6666H19.3333V15.3333Z" fill="white"/>
<path d="M2 1.33333V13.3333H2.66667V1.33333C2.66667 0.965083 2.96508 0.666667 3.33333 0.666667H16.6667C17.0349 0.666667 17.3333 0.965083 17.3333 1.33333V13.3333H18V1.33333C18 0.597 17.403 0 16.6667 0H3.33333C2.597 0 2 0.597 2 1.33333Z" fill="white"/>
<path d="M3.33337 1.33331H4.00004V1.99998H3.33337V1.33331Z" fill="white"/>
<path d="M4.66675 1.33331H5.33341V1.99998H4.66675V1.33331Z" fill="white"/>
<path d="M6 1.33331H6.66667V1.99998H6V1.33331Z" fill="white"/>
<path d="M3.33337 2.66663H16.6667V3.33329H3.33337V2.66663Z" fill="white"/>
<path d="M7.33337 4.66667C7.33337 4.29842 7.03496 4 6.66671 4H4.00004C3.63179 4 3.33337 4.29842 3.33337 4.66667V6.66667C3.33337 7.03492 3.63179 7.33334 4.00004 7.33334H6.66671C7.03496 7.33334 7.33337 7.03492 7.33337 6.66667V4.66667ZM4.00004 6.66667V4.66667H6.66671V6.66667H4.00004Z" fill="white"/>
<path d="M12 4.66667C12 4.29842 11.7016 4 11.3333 4H8.66666C8.29842 4 8 4.29842 8 4.66667V6.66667C8 7.03492 8.29842 7.33334 8.66666 7.33334H11.3333C11.7016 7.33334 12 7.03492 12 6.66667V4.66667ZM8.66666 6.66667V4.66667H11.3333V6.66667H8.66666Z" fill="white"/>
<path d="M16.6666 4.66667C16.6666 4.29842 16.3682 4 16 4H13.3333C12.965 4 12.6666 4.29842 12.6666 4.66667V6.66667C12.6666 7.03492 12.965 7.33334 13.3333 7.33334H16C16.3682 7.33334 16.6666 7.03492 16.6666 6.66667V4.66667ZM13.3333 6.66667V4.66667H16V6.66667H13.3333Z" fill="white"/>
<path d="M7.33337 8.66667C7.33337 8.29842 7.03496 8 6.66671 8H4.00004C3.63179 8 3.33337 8.29842 3.33337 8.66667V10.6667C3.33337 11.0349 3.63179 11.3333 4.00004 11.3333H6.66671C7.03496 11.3333 7.33337 11.0349 7.33337 10.6667V8.66667ZM4.00004 10.6667V8.66667H6.66671V10.6667H4.00004Z" fill="white"/>
<path d="M12 8.66667C12 8.29842 11.7016 8 11.3333 8H8.66666C8.29842 8 8 8.29842 8 8.66667V10.6667C8 11.0349 8.29842 11.3333 8.66666 11.3333H11.3333C11.7016 11.3333 12 11.0349 12 10.6667V8.66667ZM8.66666 10.6667V8.66667H11.3333V10.6667H8.66666Z" fill="white"/>
<path d="M16.6666 8.66667C16.6666 8.29842 16.3682 8 16 8H13.3333C12.965 8 12.6666 8.29842 12.6666 8.66667V10.6667C12.6666 11.0349 12.965 11.3333 13.3333 11.3333H16C16.3682 11.3333 16.6666 11.0349 16.6666 10.6667V8.66667ZM13.3333 10.6667V8.66667H16V10.6667H13.3333Z" fill="white"/>
<path d="M7.33337 13.3333V12.6667C7.33337 12.2984 7.03496 12 6.66671 12H4.00004C3.63179 12 3.33337 12.2984 3.33337 12.6667V13.3333H4.00004V12.6667H6.66671V13.3333H7.33337Z" fill="white"/>
<path d="M12 13.3333V12.6667C12 12.2984 11.7016 12 11.3333 12H8.66666C8.29842 12 8 12.2984 8 12.6667V13.3333H8.66666V12.6667H11.3333V13.3333H12Z" fill="white"/>
<path d="M16.6666 13.3333V12.6667C16.6666 12.2984 16.3682 12 16 12H13.3333C12.965 12 12.6666 12.2984 12.6666 12.6667V13.3333H13.3333V12.6667H16V13.3333H16.6666Z" fill="white"/>
</svg>
