<svg width="29" height="30" viewBox="0 0 29 30" fill="none" xmlns="http://www.w3.org/2000/svg">
<g clip-path="url(#clip0)">
<path d="M25.7924 2.39539H3.20766C1.50739 2.39539 0.12793 3.60242 0.12793 5.09015V24.8518C0.12793 26.3395 1.50739 27.5465 3.20766 27.5465H25.7924C27.4927 27.5465 28.8721 26.3395 28.8721 24.8518V5.09015C28.8721 3.60242 27.4927 2.39539 25.7924 2.39539ZM17.9198 23.9367C17.3809 24.0209 17.182 23.729 17.182 23.4876C17.182 23.1844 17.1948 21.6349 17.1948 20.383C17.1948 19.5072 16.8612 18.9514 16.4698 18.6594C18.8437 18.4293 21.346 18.1429 21.346 14.5555C21.346 13.5338 20.929 13.0229 20.2489 12.366C20.3579 12.1246 20.7237 11.1309 20.1398 9.83968C19.2479 9.59827 17.2076 10.8446 17.2076 10.8446C16.3607 10.6369 15.4432 10.5302 14.5385 10.5302C13.6338 10.5302 12.7163 10.6369 11.8694 10.8446C11.8694 10.8446 9.82909 9.59827 8.93725 9.83968C8.35339 11.1253 8.71269 12.119 8.82818 12.366C8.14807 13.0229 7.82727 13.5338 7.82727 14.5555C7.82727 18.1261 10.2205 18.4293 12.5944 18.6594C12.2865 18.9008 12.0106 19.3163 11.9143 19.9114C11.3048 20.1528 9.74568 20.5682 8.81535 19.131C8.23148 18.244 7.17924 18.171 7.17924 18.171C6.13983 18.1598 7.10866 18.7436 7.10866 18.7436C7.8016 19.0243 8.28923 20.1023 8.28923 20.1023C8.91159 21.7696 11.8887 21.2082 11.8887 21.2082C11.8887 21.9886 11.9015 23.2574 11.9015 23.4876C11.9015 23.729 11.709 24.0209 11.1636 23.9367C6.92901 22.696 3.96477 19.1703 3.96477 15.0496C3.96477 9.89582 8.46888 5.9828 14.3589 5.9828C20.2489 5.9828 25.0224 9.89582 25.0224 15.0496C25.0289 19.1703 22.1544 22.7016 17.9198 23.9367ZM11.6256 20.5065C11.5037 20.5289 11.3882 20.484 11.3754 20.411C11.3625 20.3268 11.446 20.2538 11.5679 20.2314C11.6898 20.2202 11.8053 20.2651 11.8181 20.338C11.8373 20.411 11.7539 20.484 11.6256 20.5065ZM11.0161 20.4559C11.0161 20.5289 10.9198 20.5907 10.7915 20.5907C10.6504 20.6019 10.5541 20.5402 10.5541 20.4559C10.5541 20.383 10.6504 20.3212 10.7787 20.3212C10.9006 20.31 11.0161 20.3717 11.0161 20.4559ZM10.1371 20.3942C10.1114 20.4672 9.98308 20.5009 9.874 20.4672C9.7521 20.4447 9.66869 20.3605 9.69435 20.2875C9.72002 20.2145 9.84834 20.1809 9.95741 20.2033C10.0857 20.237 10.1691 20.3212 10.1371 20.3942ZM9.34788 20.091C9.29014 20.1528 9.16823 20.1416 9.07199 20.0573C8.97575 19.9844 8.95008 19.8777 9.01425 19.8272C9.07199 19.7654 9.1939 19.7766 9.29014 19.8608C9.37355 19.9338 9.40563 20.0461 9.34788 20.091ZM8.76402 19.5801C8.70627 19.6138 8.5972 19.5801 8.52662 19.4959C8.45604 19.4117 8.45604 19.3163 8.52662 19.277C8.5972 19.2265 8.70627 19.2658 8.76402 19.35C8.8346 19.4342 8.8346 19.5352 8.76402 19.5801V19.5801ZM8.34697 19.0356C8.28923 19.0861 8.19298 19.058 8.12241 19.0019C8.05183 18.9289 8.039 18.8447 8.09674 18.8054C8.15449 18.7549 8.25073 18.7829 8.32131 18.8391C8.39188 18.9121 8.40472 18.9963 8.34697 19.0356ZM7.91709 18.6201C7.89143 18.6707 7.80802 18.6819 7.73744 18.6426C7.65403 18.6089 7.61553 18.5471 7.6412 18.4966C7.66686 18.4629 7.73744 18.4461 7.82085 18.4742C7.90426 18.5135 7.94276 18.5752 7.91709 18.6201Z" fill="white"/>
</g>
<defs>
<clipPath id="clip0">
<rect x="0.12793" y="0.598877" width="28.7442" height="28.7442" fill="white"/>
</clipPath>
</defs>
</svg>
