<svg width="29" height="29" viewBox="0 0 29 29" fill="none" xmlns="http://www.w3.org/2000/svg">
<g clip-path="url(#clip0)">
<path d="M26.691 1.79651H2.04674C0.917504 1.79651 0 2.61055 0 3.60986V25.1343C0 26.1336 0.917504 26.9477 2.04674 26.9477H26.691C27.8203 26.9477 28.7442 26.1336 28.7442 25.1343V3.60986C28.7442 2.61055 27.8203 1.79651 26.691 1.79651ZM8.68742 23.3546H4.42712V11.3517H8.69383V23.3546H8.68742ZM6.55727 9.71239C5.19064 9.71239 4.08706 8.74115 4.08706 7.55096C4.08706 6.36077 5.19064 5.38953 6.55727 5.38953C7.91748 5.38953 9.02747 6.36077 9.02747 7.55096C9.02747 8.74676 7.9239 9.71239 6.55727 9.71239V9.71239ZM24.6571 23.3546H20.3968V17.516C20.3968 16.1237 20.3647 14.3328 18.1833 14.3328C15.9633 14.3328 15.6232 15.8486 15.6232 17.4149V23.3546H11.3629V11.3517H15.45V12.991H15.5077C16.0788 12.0479 17.4711 11.0542 19.5435 11.0542C23.8551 11.0542 24.6571 13.5412 24.6571 16.7749V23.3546V23.3546Z" fill="white"/>
</g>
<defs>
<clipPath id="clip0">
<rect width="28.7442" height="28.7442" fill="white"/>
</clipPath>
</defs>
</svg>
