<svg width="20" height="18" viewBox="0 0 20 18" fill="none" xmlns="http://www.w3.org/2000/svg">
<g clip-path="url(#clip0)">
<path d="M17.7083 17.25H2.29167C1.0275 17.25 0 16.3252 0 15.1875V2.8125C0 1.67475 1.0275 0.75 2.29167 0.75H17.7083C18.9725 0.75 20 1.67475 20 2.8125V15.1875C20 16.3252 18.9725 17.25 17.7083 17.25ZM2.29167 1.875C1.7175 1.875 1.25 2.29575 1.25 2.8125V15.1875C1.25 15.7043 1.7175 16.125 2.29167 16.125H17.7083C18.2825 16.125 18.75 15.7043 18.75 15.1875V2.8125C18.75 2.29575 18.2825 1.875 17.7083 1.875H2.29167Z" fill="white"/>
<path d="M19.375 4.5H0.625C0.28 4.5 0 4.248 0 3.9375C0 3.627 0.28 3.375 0.625 3.375H19.375C19.72 3.375 20 3.627 20 3.9375C20 4.248 19.72 4.5 19.375 4.5Z" fill="white"/>
<path d="M12.7084 12.375C12.5642 12.375 12.42 12.3308 12.3017 12.2393C12.04 12.0368 12.0092 11.682 12.2342 11.4458L13.135 10.5L12.2334 9.5535C12.0084 9.318 12.0392 8.9625 12.3009 8.76C12.5642 8.5575 12.9584 8.58525 13.1825 8.82075L14.4325 10.1333C14.6334 10.344 14.6334 10.6545 14.4325 10.866L13.1825 12.1785C13.0592 12.3083 12.8842 12.375 12.7084 12.375Z" fill="white"/>
<path d="M7.29164 12.375C7.1158 12.375 6.9408 12.3083 6.81664 12.1785L5.56664 10.866C5.36581 10.6553 5.36581 10.3448 5.56664 10.1333L6.81664 8.82075C7.04164 8.58525 7.4358 8.55675 7.6983 8.76C7.95997 8.9625 7.9908 9.31725 7.7658 9.5535L6.86497 10.5L7.76663 11.4465C7.99163 11.682 7.9608 12.0375 7.69914 12.24C7.5808 12.33 7.4358 12.375 7.29164 12.375Z" fill="white"/>
<path d="M9.3751 13.5C9.32843 13.5 9.28176 13.4955 9.23426 13.4858C8.8976 13.416 8.68843 13.1138 8.7651 12.8115L10.0151 7.9365C10.0926 7.63425 10.4284 7.4475 10.7643 7.51425C11.1009 7.584 11.3101 7.88625 11.2334 8.1885L9.98343 13.0635C9.9176 13.3245 9.6601 13.5 9.3751 13.5V13.5Z" fill="white"/>
</g>
<defs>
<clipPath id="clip0">
<rect width="20" height="18" fill="white"/>
</clipPath>
</defs>
</svg>
