<svg width="29" height="29" viewBox="0 0 29 29" fill="none" xmlns="http://www.w3.org/2000/svg">
<g clip-path="url(#clip0)">
<path d="M25.9203 1.79651H3.33559C1.63532 1.79651 0.255859 3.00354 0.255859 4.49128V24.2529C0.255859 25.7406 1.63532 26.9477 3.33559 26.9477H25.9203C27.6206 26.9477 29 25.7406 29 24.2529V4.49128C29 3.00354 27.6206 1.79651 25.9203 1.79651ZM22.7828 10.7117C22.7957 10.8689 22.7957 11.0317 22.7957 11.1889C22.7957 16.0563 18.561 21.6648 10.8232 21.6648C8.4364 21.6648 6.22284 21.0585 4.36217 20.0143C4.70223 20.0479 5.02945 20.0592 5.37592 20.0592C7.34566 20.0592 9.15501 19.4753 10.5986 18.4872C8.75079 18.4535 7.19809 17.3925 6.66556 15.9328C7.31358 16.017 7.89745 16.017 8.56473 15.8654C6.63989 15.523 5.19627 14.0409 5.19627 12.25V12.205C5.75447 12.4801 6.40891 12.6486 7.09544 12.671C6.51826 12.3351 6.04511 11.8794 5.7182 11.3445C5.39129 10.8096 5.2208 10.2123 5.22193 9.60572C5.22193 8.9208 5.42725 8.29202 5.79297 7.74745C7.86537 9.98186 10.9772 11.4415 14.4675 11.5987C13.8709 9.10045 16.0074 7.07376 18.5739 7.07376C19.7865 7.07376 20.8772 7.51728 21.6472 8.23588C22.5968 8.07869 23.5079 7.76991 24.3163 7.34885C24.0019 8.2022 23.341 8.9208 22.4684 9.37554C23.3154 9.29694 24.1366 9.08922 24.8937 8.8029C24.3227 9.53835 23.6041 10.1896 22.7828 10.7117Z" fill="white"/>
</g>
<defs>
<clipPath id="clip0">
<rect x="0.255859" width="28.7442" height="28.7442" fill="white"/>
</clipPath>
</defs>
</svg>
