<svg width="161" height="122" viewBox="0 0 161 122" fill="none" xmlns="http://www.w3.org/2000/svg">
<g clip-path="url(#clip0)">
<path d="M129.293 113.47C128.248 117.767 124.586 120.452 124.586 120.452C124.586 120.452 122.618 116.17 123.663 111.874C124.708 107.577 128.37 104.892 128.37 104.892C128.37 104.892 130.338 109.173 129.293 113.47Z" fill="#3F3D56"/>
<path d="M127.708 112.561C124.781 115.683 124.453 120.449 124.453 120.449C124.453 120.449 128.871 120.153 131.798 117.031C134.725 113.909 135.053 109.143 135.053 109.143C135.053 109.143 130.635 109.439 127.708 112.561Z" fill="#872DCD"/>
<path d="M21.655 97.2165H27.1672L40.7508 91.4777C40.7508 91.4777 50.3971 87.2267 49.6097 95.3036C48.8222 103.38 47.4441 114.22 47.4441 114.22C47.4441 114.22 43.1131 112.095 40.7508 112.733C38.3884 113.37 39.9633 99.7671 39.9633 99.7671C39.9633 99.7671 20.6707 109.757 18.8989 108.482C17.1271 107.206 16.7334 98.2793 16.7334 98.2793L21.655 97.2165Z" fill="#2F2E41"/>
<path opacity="0.1" d="M21.655 97.2165H27.1672L40.7508 91.4777C40.7508 91.4777 50.3971 87.2267 49.6097 95.3036C48.8222 103.38 47.4441 114.22 47.4441 114.22C47.4441 114.22 43.1131 112.095 40.7508 112.733C38.3884 113.37 39.9633 99.7671 39.9633 99.7671C39.9633 99.7671 20.6707 109.757 18.8989 108.482C17.1271 107.206 16.7334 98.2793 16.7334 98.2793L21.655 97.2165Z" fill="black"/>
<path d="M30.3396 78.5789L37.0105 88.9271L52.5627 102.955C52.5627 102.955 66.9338 106.569 64.9651 109.119C62.9965 111.67 50.9878 106.569 50.9878 106.569C50.9878 106.569 33.0732 92.5404 32.4826 91.4777C31.892 90.4149 25.3955 80.4251 25.3955 80.4251L30.3396 78.5789Z" fill="#A0616A"/>
<path opacity="0.1" d="M30.3396 78.5789L37.0105 88.9271L52.5627 102.955C52.5627 102.955 66.9338 106.569 64.9651 109.119C62.9965 111.67 50.9878 106.569 50.9878 106.569C50.9878 106.569 33.0732 92.5404 32.4826 91.4777C31.892 90.4149 25.3955 80.4251 25.3955 80.4251L30.3396 78.5789Z" fill="black"/>
<path d="M26.3798 70.2227L30.7108 79.3623C30.7108 79.3623 29.7265 83.8259 28.1516 84.251C26.5767 84.6761 19.8833 78.7247 19.8833 78.7247L26.3798 70.2227Z" fill="#D0CDE1"/>
<path opacity="0.1" d="M26.3798 70.2227L30.7108 79.3623C30.7108 79.3623 29.7265 83.8259 28.1516 84.251C26.5767 84.6761 19.8833 78.7247 19.8833 78.7247L26.3798 70.2227Z" fill="black"/>
<path d="M79.2161 92.4843L80.4955 98.1821C80.5097 98.2457 80.5075 98.3122 80.489 98.3744L74.6857 117.955C74.6627 118.033 74.6158 118.099 74.5527 118.144C74.4897 118.189 74.4144 118.209 74.3394 118.201C74.2643 118.193 74.1941 118.157 74.1404 118.1C74.0867 118.043 74.0527 117.968 74.0442 117.887L73.2414 110.259C73.236 110.208 73.2408 110.157 73.2555 110.108L78.5824 92.4579C78.6046 92.3843 78.6484 92.3205 78.7073 92.2762C78.7662 92.2319 78.8368 92.2096 78.9085 92.2126C78.9802 92.2156 79.049 92.2437 79.1045 92.2928C79.16 92.3418 79.1992 92.4091 79.2161 92.4843Z" fill="#2F2E41"/>
<path d="M78.7456 92.9655L79.9267 97.8542L74.8082 115.708L73.6271 110.182L78.7456 92.9655Z" fill="#F2F2F2"/>
<path d="M52.9565 119.534C53.1533 120.172 73.4303 119.322 73.6272 119.109C73.7988 118.843 73.944 118.558 74.0603 118.259C74.2453 117.834 74.4146 117.409 74.4146 117.409L73.6272 110.526L53.547 109.757C53.547 109.757 53.045 115.589 52.9427 118.259C52.9171 118.933 52.9171 119.407 52.9565 119.534Z" fill="#2F2E41"/>
<path opacity="0.1" d="M71.0678 111.457L71.4615 117.409H62.6027V111.457H71.0678Z" fill="black"/>
<path opacity="0.1" d="M59.6498 113.37L59.7027 113.359L59.4529 115.921H54.5314V113.37H59.6498Z" fill="black"/>
<path opacity="0.1" d="M52.9565 119.534C53.1533 120.172 73.4303 119.322 73.6272 119.109C73.7988 118.843 73.944 118.558 74.0603 118.259H52.9427C52.9171 118.933 52.9171 119.407 52.9565 119.534Z" fill="black"/>
<path d="M29.3327 67.247C34.2254 67.247 38.1916 62.9648 38.1916 57.6823C38.1916 52.3999 34.2254 48.1176 29.3327 48.1176C24.4401 48.1176 20.4739 52.3999 20.4739 57.6823C20.4739 62.9648 24.4401 67.247 29.3327 67.247Z" fill="#A0616A"/>
<path d="M28.7421 66.1843C28.7421 66.1843 25.7892 71.7106 25.1986 74.6863C24.608 77.662 16.3397 68.7349 16.3397 68.7349L15.257 65.6529C15.257 65.6529 23.0331 61.7208 22.4425 58.5325C21.8519 55.3443 28.7421 66.1843 28.7421 66.1843Z" fill="#A0616A"/>
<path d="M30.317 82.7632L38.3884 94.2408L57.6811 109.757C57.6811 109.757 71.6585 112.945 68.5086 115.283C65.3588 117.621 56.3031 113.158 56.3031 113.158C56.3031 113.158 36.8135 101.893 32.6794 97.2165C28.5452 92.5404 20.8676 84.6761 20.8676 84.6761L30.317 82.7632Z" fill="#A0616A"/>
<path d="M19.4895 100.617L21.8519 104.656L35.9507 99.8667C39.0442 98.8159 42.4364 99.2026 45.1802 101.069C47.641 102.743 49.2159 105.4 45.6724 109.332C38.5853 117.196 33.8606 112.945 33.8606 112.945C33.8606 112.945 10.04 125.06 6.10276 119.109C2.16549 113.158 1.96863 110.182 1.96863 110.182C1.96863 110.182 17.1271 99.9796 19.4895 100.617Z" fill="#2F2E41"/>
<path d="M49.0191 114.646C49.0191 114.646 55.3187 119.109 47.8379 121.235C40.3571 123.36 34.8449 120.384 34.8449 120.384C34.8449 120.384 28.3484 120.384 28.3484 116.771C28.3484 113.158 30.5139 112.733 30.5139 112.733L37.2073 113.795C37.2073 113.795 45.2787 111.457 49.0191 114.646Z" fill="#D0CDE1"/>
<path d="M36.6 55.2763C37.203 55.5665 37.8009 55.91 38.4564 55.9942C39.112 56.0785 39.8585 55.8313 40.1686 55.2022C40.3362 54.8623 40.3553 54.4626 40.3632 54.0777C40.3869 52.9106 40.3087 51.6488 39.6236 50.7455C39.1877 50.1707 38.5512 49.8083 38.0999 49.2474C37.7766 48.8456 37.5614 48.3585 37.3297 47.8886C36.4521 46.1089 35.1526 44.3985 33.3466 43.8854C32.5924 43.6711 31.8013 43.6816 31.0216 43.6935L26.4736 43.7627C25.7376 43.7739 24.9902 43.787 24.2857 44.017C22.8218 44.4948 21.7559 45.824 20.7798 47.095C20.0494 48.046 19.3172 49.0067 18.7691 50.0911C17.9832 51.6735 17.5859 53.4468 17.6149 55.2421C17.6088 55.7025 17.6639 56.1615 17.7784 56.6051C17.9124 57.0119 18.0784 57.4055 18.2746 57.7818C19.1275 59.5905 19.6339 61.8497 18.6734 63.5944C20.3419 62.8585 21.9928 61.8937 23.0935 60.3527C23.5859 59.6633 23.972 58.8563 24.6282 58.3504C25.2844 57.8445 26.3536 57.8007 26.7746 58.5431C26.9193 58.8434 26.9939 59.1774 26.9917 59.516C27.0224 60.0733 27.0216 60.652 27.2404 61.1578C27.4593 61.6636 27.9806 62.0718 28.4783 61.9204C29.3354 61.6597 29.2533 60.2394 29.9135 59.5942C30.4149 59.1042 31.1884 59.1979 31.8325 58.9755C32.583 58.7163 33.1461 58.0144 33.4669 57.2374C33.7108 56.6468 33.7073 55.1013 34.1688 54.7815C34.7475 54.3804 36.0636 55.0181 36.6 55.2763Z" fill="#2F2E41"/>
<path d="M14.5537 64.6447C14.9522 64.5299 15.3718 64.531 15.7698 64.648C17.0335 65.0143 19.8664 65.984 20.4738 67.4596C21.2613 69.3725 24.0174 72.3482 24.0174 72.3482C24.0174 72.3482 27.7578 76.3867 26.9703 79.1498C26.1829 81.9129 23.2299 85.1012 23.2299 85.1012C23.2299 85.1012 24.0174 98.2792 20.0801 101.68C16.1428 105.081 14.5679 102.743 14.5679 105.931C14.5679 109.119 2.36237 119.109 0 112.945C0 112.945 1.18118 101.467 0.787456 97.429C0.399406 93.4488 0.96749 68.6159 14.5537 64.6447Z" fill="#D0CDE1"/>
<path d="M20.8676 70.0102C20.8676 70.0102 32.8763 79.5749 30.7108 83.6134C30.7108 83.6134 23.4268 87.4392 21.8519 87.2267C20.277 87.0142 14.1742 79.5749 12.5993 78.9373C11.0244 78.2996 10.237 66.822 20.8676 70.0102Z" fill="#D0CDE1"/>
<path d="M74.5202 48.8592C79.8913 48.8592 84.2454 44.1582 84.2454 38.3591C84.2454 32.56 79.8913 27.8589 74.5202 27.8589C69.1491 27.8589 64.7949 32.56 64.7949 38.3591C64.7949 44.1582 69.1491 48.8592 74.5202 48.8592Z" fill="#F2F2F2"/>
<path d="M154.846 24.7223H100.347V12.4098H154.846V24.7223ZM100.587 24.4631H154.606V12.669H100.587V24.4631Z" fill="white"/>
<path d="M150.884 14.8723H96.6256V26.9256H150.884V14.8723Z" fill="#872DCD"/>
<path d="M62.3261 3.36977C62.7902 3.36977 63.1664 2.96358 63.1664 2.46252C63.1664 1.96146 62.7902 1.55527 62.3261 1.55527C61.8621 1.55527 61.4858 1.96146 61.4858 2.46252C61.4858 2.96358 61.8621 3.36977 62.3261 3.36977Z" fill="#6C63FF"/>
<path d="M65.2072 3.36977C65.6713 3.36977 66.0475 2.96358 66.0475 2.46252C66.0475 1.96146 65.6713 1.55527 65.2072 1.55527C64.7432 1.55527 64.3669 1.96146 64.3669 2.46252C64.3669 2.96358 64.7432 3.36977 65.2072 3.36977Z" fill="#6C63FF"/>
<path d="M68.0882 3.36977C68.5523 3.36977 68.9285 2.96358 68.9285 2.46252C68.9285 1.96146 68.5523 1.55527 68.0882 1.55527C67.6241 1.55527 67.2479 1.96146 67.2479 2.46252C67.2479 2.96358 67.6241 3.36977 68.0882 3.36977Z" fill="#6C63FF"/>
<path d="M161 71.0239H59.9253V0H161V71.0239ZM60.1654 70.7647H160.76V0.259212H60.1654V70.7647Z" fill="white"/>
<path d="M160.88 3.93158H60.0454V4.19079H160.88V3.93158Z" fill="white"/>
<path d="M62.5663 3.11053C62.3764 3.11053 62.1907 3.04972 62.0328 2.93579C61.8748 2.82186 61.7517 2.65992 61.6791 2.47046C61.6064 2.28101 61.5874 2.07253 61.6244 1.8714C61.6615 1.67027 61.7529 1.48553 61.8872 1.34052C62.0215 1.19551 62.1927 1.09676 62.3789 1.05676C62.5652 1.01675 62.7583 1.03728 62.9338 1.11576C63.1093 1.19424 63.2593 1.32713 63.3648 1.49764C63.4703 1.66815 63.5266 1.86861 63.5266 2.07368C63.5263 2.34857 63.4251 2.61211 63.245 2.80649C63.065 3.00087 62.8209 3.11021 62.5663 3.11053ZM62.5663 1.29605C62.4238 1.29605 62.2846 1.34165 62.1661 1.4271C62.0477 1.51255 61.9554 1.634 61.9009 1.77609C61.8464 1.91819 61.8321 2.07454 61.8599 2.22539C61.8877 2.37624 61.9563 2.5148 62.057 2.62355C62.1577 2.73231 62.2861 2.80637 62.4258 2.83637C62.5655 2.86638 62.7103 2.85098 62.8419 2.79212C62.9735 2.73326 63.086 2.63359 63.1652 2.50571C63.2443 2.37783 63.2865 2.22748 63.2865 2.07368C63.2863 1.86751 63.2104 1.66986 63.0753 1.52407C62.9403 1.37829 62.7572 1.29629 62.5663 1.29605Z" fill="#3F3D56"/>
<path d="M65.4473 3.11053C65.2573 3.11053 65.0717 3.04972 64.9137 2.93579C64.7558 2.82186 64.6327 2.65992 64.56 2.47046C64.4874 2.28101 64.4683 2.07253 64.5054 1.8714C64.5424 1.67027 64.6339 1.48553 64.7682 1.34052C64.9025 1.19551 65.0736 1.09676 65.2599 1.05676C65.4462 1.01675 65.6393 1.03728 65.8148 1.11576C65.9903 1.19424 66.1402 1.32713 66.2458 1.49764C66.3513 1.66815 66.4076 1.86861 66.4076 2.07368C66.4073 2.34857 66.306 2.61211 66.126 2.80649C65.946 3.00087 65.7019 3.11021 65.4473 3.11053ZM65.4473 1.29605C65.3048 1.29605 65.1656 1.34165 65.0471 1.4271C64.9287 1.51255 64.8364 1.634 64.7818 1.77609C64.7273 1.91819 64.7131 2.07454 64.7409 2.22539C64.7686 2.37624 64.8373 2.5148 64.938 2.62355C65.0387 2.73231 65.167 2.80637 65.3068 2.83637C65.4465 2.86638 65.5913 2.85098 65.7229 2.79212C65.8545 2.73326 65.967 2.63359 66.0461 2.50571C66.1253 2.37783 66.1675 2.22748 66.1675 2.07368C66.1673 1.86751 66.0913 1.66986 65.9563 1.52407C65.8213 1.37829 65.6382 1.29629 65.4473 1.29605Z" fill="#3F3D56"/>
<path d="M68.3283 3.11052C68.1383 3.11052 67.9526 3.04972 67.7947 2.93579C67.6368 2.82186 67.5137 2.65992 67.441 2.47047C67.3683 2.28101 67.3493 2.07253 67.3864 1.8714C67.4234 1.67027 67.5149 1.48553 67.6492 1.34052C67.7835 1.19551 67.9546 1.09677 68.1409 1.05676C68.3272 1.01675 68.5203 1.03728 68.6958 1.11576C68.8712 1.19424 69.0212 1.32713 69.1268 1.49764C69.2323 1.66815 69.2886 1.86861 69.2886 2.07368C69.2883 2.34857 69.187 2.61211 69.007 2.80649C68.827 3.00086 68.5829 3.11021 68.3283 3.11052ZM68.3283 1.29605C68.1858 1.29605 68.0466 1.34165 67.9281 1.4271C67.8097 1.51255 67.7173 1.634 67.6628 1.77609C67.6083 1.91819 67.5941 2.07454 67.6218 2.22539C67.6496 2.37623 67.7182 2.5148 67.819 2.62355C67.9197 2.7323 68.048 2.80637 68.1877 2.83637C68.3275 2.86638 68.4723 2.85098 68.6039 2.79212C68.7355 2.73326 68.848 2.63359 68.9271 2.50571C69.0063 2.37783 69.0485 2.22748 69.0485 2.07368C69.0483 1.86751 68.9723 1.66986 68.8373 1.52408C68.7023 1.37829 68.5192 1.29629 68.3283 1.29605Z" fill="#3F3D56"/>
<path d="M91.8235 4.06119H91.5834V70.9949H91.8235V4.06119Z" fill="white"/>
<path d="M120.694 36.97H103.048V39.5621H120.694V36.97Z" fill="#F2F2F2"/>
<path d="M148.423 36.97H130.777V39.5621H148.423V36.97Z" fill="#F2F2F2"/>
<path d="M121.774 38.3957H103.888V35.5443H121.774V38.3957ZM104.128 38.1365H121.534V35.8036H104.128V38.1365Z" fill="#3F3D56"/>
<path d="M120.694 57.0589H103.048V59.651H120.694V57.0589Z" fill="#F2F2F2"/>
<path d="M121.774 58.4846H103.888V55.6332H121.774V58.4846ZM104.128 58.2253H121.534V55.8925H104.128V58.2253Z" fill="#3F3D56"/>
<path d="M148.483 46.7552H103.108V49.3474H148.483V46.7552Z" fill="#F2F2F2"/>
<path d="M149.564 48.4401H103.948V45.5888H149.564V48.4401ZM104.188 48.1809H149.324V45.848H104.188V48.1809Z" fill="#3F3D56"/>
<path d="M149.504 38.3957H131.617V35.5443H149.504V38.3957ZM131.858 38.1365H149.263V35.8036H131.858V38.1365Z" fill="#3F3D56"/>
<path d="M76.1659 46.1131C74.2128 46.1131 72.3036 45.4878 70.6797 44.3163C69.0558 43.1447 67.7901 41.4796 67.0427 39.5314C66.2953 37.5833 66.0997 35.4396 66.4808 33.3714C66.8618 31.3032 67.8023 29.4035 69.1833 27.9124C70.5643 26.4214 72.3239 25.406 74.2394 24.9946C76.1549 24.5832 78.1404 24.7943 79.9448 25.6013C81.7492 26.4082 83.2915 27.7748 84.3766 29.5281C85.4616 31.2814 86.0408 33.3427 86.0408 35.4514C86.0378 38.2781 84.9965 40.988 83.1452 42.9868C81.294 44.9856 78.784 46.1099 76.1659 46.1131ZM76.1659 25.1128C74.272 25.1128 72.4207 25.7191 70.846 26.8552C69.2712 27.9912 68.0439 29.6058 67.3192 31.495C66.5944 33.3841 66.4048 35.4629 66.7743 37.4683C67.1437 39.4738 68.0557 41.316 69.3949 42.7619C70.7341 44.2078 72.4403 45.1924 74.2978 45.5913C76.1553 45.9903 78.0806 45.7855 79.8303 45.003C81.5801 44.2205 83.0756 42.8954 84.1277 41.1952C85.1799 39.495 85.7415 37.4962 85.7415 35.4514C85.7387 32.7104 84.7289 30.0825 82.9337 28.1443C81.1386 26.2061 78.7046 25.1159 76.1659 25.1128Z" fill="#3F3D56"/>
<path d="M154.267 120.26H111.925V120.583H154.267V120.26Z" fill="#3F3D56"/>
</g>
<defs>
<clipPath id="clip0">
<rect width="161" height="122" fill="white"/>
</clipPath>
</defs>
</svg>
